<svg width="25" height="25" viewBox="0 0 25 25" fill="none" xmlns="http://www.w3.org/2000/svg">
<path d="M12.6208 20.4034C14.7425 20.4034 16.7773 19.5605 18.2776 18.0603C19.7779 16.56 20.6208 14.5251 20.6208 12.4034C20.6208 10.2817 19.7779 8.24683 18.2776 6.74654C16.7773 5.24625 14.7425 4.4034 12.6208 4.4034C10.499 4.4034 8.46419 5.24625 6.9639 6.74654C5.46361 8.24683 4.62075 10.2817 4.62075 12.4034C4.62075 14.5251 5.46361 16.56 6.9639 18.0603C8.46419 19.5605 10.499 20.4034 12.6208 20.4034ZM12.6208 2.4034C13.934 2.4034 15.2343 2.66205 16.4476 3.1646C17.6608 3.66715 18.7632 4.40374 19.6918 5.33233C20.6204 6.26091 21.357 7.36331 21.8595 8.57656C22.3621 9.78982 22.6208 11.0902 22.6208 12.4034C22.6208 15.0556 21.5672 17.5991 19.6918 19.4745C17.8165 21.3498 15.2729 22.4034 12.6208 22.4034C7.09075 22.4034 2.62075 17.9034 2.62075 12.4034C2.62075 9.75123 3.67432 7.20769 5.54968 5.33233C7.42505 3.45696 9.96859 2.4034 12.6208 2.4034ZM13.1208 7.4034V12.6534L17.6208 15.3234L16.8708 16.5534L11.6208 13.4034V7.4034H13.1208Z" fill="black"/>
</svg>
