<svg width="25" height="25" viewBox="0 0 25 25" fill="none" xmlns="http://www.w3.org/2000/svg">
<path d="M12.7019 2.02246C11.3887 2.02246 10.0883 2.28112 8.87507 2.78367C7.66181 3.28621 6.55942 4.02281 5.63084 4.95139C3.75547 6.82676 2.7019 9.3703 2.7019 12.0225C2.7019 16.4425 5.5719 20.1925 9.5419 21.5225C10.0419 21.6025 10.2019 21.2925 10.2019 21.0225C10.2019 20.7925 10.2019 20.1625 10.2019 19.3325C7.4319 19.9325 6.8419 17.9925 6.8419 17.9925C6.3819 16.8325 5.7319 16.5225 5.7319 16.5225C4.8219 15.9025 5.8019 15.9225 5.8019 15.9225C6.8019 15.9925 7.3319 16.9525 7.3319 16.9525C8.2019 18.4725 9.6719 18.0225 10.2419 17.7825C10.3319 17.1325 10.5919 16.6925 10.8719 16.4425C8.6519 16.1925 6.3219 15.3325 6.3219 11.5225C6.3219 10.4125 6.7019 9.52246 7.3519 8.81246C7.2519 8.56246 6.9019 7.52246 7.4519 6.17246C7.4519 6.17246 8.2919 5.90246 10.2019 7.19246C10.9919 6.97246 11.8519 6.86246 12.7019 6.86246C13.5519 6.86246 14.4119 6.97246 15.2019 7.19246C17.1119 5.90246 17.9519 6.17246 17.9519 6.17246C18.5019 7.52246 18.1519 8.56246 18.0519 8.81246C18.7019 9.52246 19.0819 10.4125 19.0819 11.5225C19.0819 15.3425 16.7419 16.1825 14.5119 16.4325C14.8719 16.7425 15.2019 17.3525 15.2019 18.2825C15.2019 19.6225 15.2019 20.7025 15.2019 21.0225C15.2019 21.2925 15.3619 21.6125 15.8719 21.5225C19.8419 20.1825 22.7019 16.4425 22.7019 12.0225C22.7019 10.7092 22.4432 9.40888 21.9407 8.19563C21.4382 6.98237 20.7016 5.87998 19.773 4.95139C18.8444 4.02281 17.742 3.28621 16.5287 2.78367C15.3155 2.28112 14.0151 2.02246 12.7019 2.02246Z" fill="black"/>
</svg>
