<svg width="25" height="25" viewBox="0 0 25 25" fill="none" xmlns="http://www.w3.org/2000/svg">
<path d="M17.0112 14.3807C17.0912 13.7207 17.1512 13.0607 17.1512 12.3807C17.1512 11.7007 17.0912 11.0407 17.0112 10.3807H20.3912C20.5512 11.0207 20.6512 11.6907 20.6512 12.3807C20.6512 13.0707 20.5512 13.7407 20.3912 14.3807M15.2412 19.9407C15.8412 18.8307 16.3012 17.6307 16.6212 16.3807H19.5712C18.6112 18.0307 17.0812 19.3107 15.2412 19.9407ZM14.9912 14.3807H10.3112C10.2112 13.7207 10.1512 13.0607 10.1512 12.3807C10.1512 11.7007 10.2112 11.0307 10.3112 10.3807H14.9912C15.0812 11.0307 15.1512 11.7007 15.1512 12.3807C15.1512 13.0607 15.0812 13.7207 14.9912 14.3807ZM12.6512 20.3407C11.8212 19.1407 11.1512 17.8107 10.7412 16.3807H14.5612C14.1512 17.8107 13.4812 19.1407 12.6512 20.3407ZM8.65117 8.38066H5.73117C6.68117 6.72066 8.22117 5.44066 10.0512 4.82066C9.45117 5.93066 9.00117 7.13066 8.65117 8.38066ZM5.73117 16.3807H8.65117C9.00117 17.6307 9.45117 18.8307 10.0512 19.9407C8.22117 19.3107 6.68117 18.0307 5.73117 16.3807ZM4.91117 14.3807C4.75117 13.7407 4.65117 13.0707 4.65117 12.3807C4.65117 11.6907 4.75117 11.0207 4.91117 10.3807H8.29117C8.21117 11.0407 8.15117 11.7007 8.15117 12.3807C8.15117 13.0607 8.21117 13.7207 8.29117 14.3807M12.6512 4.41066C13.4812 5.61066 14.1512 6.95066 14.5612 8.38066H10.7412C11.1512 6.95066 11.8212 5.61066 12.6512 4.41066ZM19.5712 8.38066H16.6212C16.3012 7.13066 15.8412 5.93066 15.2412 4.82066C17.0812 5.45066 18.6112 6.72066 19.5712 8.38066ZM12.6512 2.38066C7.12117 2.38066 2.65117 6.88066 2.65117 12.3807C2.65117 15.0328 3.70474 17.5764 5.5801 19.4517C6.50869 20.3803 7.61108 21.1169 8.82433 21.6195C10.0376 22.122 11.338 22.3807 12.6512 22.3807C15.3033 22.3807 17.8469 21.3271 19.7222 19.4517C21.5976 17.5764 22.6512 15.0328 22.6512 12.3807C22.6512 11.0674 22.3925 9.76708 21.89 8.55383C21.3874 7.34057 20.6508 6.23818 19.7222 5.30959C18.7937 4.38101 17.6913 3.64441 16.478 3.14187C15.2647 2.63932 13.9644 2.38066 12.6512 2.38066Z" fill="black"/>
</svg>
