<svg width="25" height="25" viewBox="0 0 25 25" fill="none" xmlns="http://www.w3.org/2000/svg">
<path d="M19.7019 3.02246C20.2323 3.02246 20.741 3.23317 21.1161 3.60825C21.4912 3.98332 21.7019 4.49203 21.7019 5.02246V19.0225C21.7019 19.5529 21.4912 20.0616 21.1161 20.4367C20.741 20.8117 20.2323 21.0225 19.7019 21.0225H5.7019C5.17147 21.0225 4.66276 20.8117 4.28769 20.4367C3.91262 20.0616 3.7019 19.5529 3.7019 19.0225V5.02246C3.7019 4.49203 3.91262 3.98332 4.28769 3.60825C4.66276 3.23317 5.17147 3.02246 5.7019 3.02246H19.7019ZM19.2019 18.5225V13.2225C19.2019 12.3579 18.8584 11.5287 18.2471 10.9173C17.6357 10.3059 16.8065 9.96246 15.9419 9.96246C15.0919 9.96246 14.1019 10.4825 13.6219 11.2625V10.1525H10.8319V18.5225H13.6219V13.5925C13.6219 12.8225 14.2419 12.1925 15.0119 12.1925C15.3832 12.1925 15.7393 12.34 16.0019 12.6025C16.2644 12.8651 16.4119 13.2212 16.4119 13.5925V18.5225H19.2019ZM7.5819 8.58246C8.02747 8.58246 8.45478 8.40546 8.76984 8.0904C9.08491 7.77534 9.2619 7.34802 9.2619 6.90246C9.2619 5.97246 8.5119 5.21246 7.5819 5.21246C7.13369 5.21246 6.70383 5.39051 6.38689 5.70745C6.06996 6.02439 5.8919 6.45425 5.8919 6.90246C5.8919 7.83246 6.6519 8.58246 7.5819 8.58246ZM8.9719 18.5225V10.1525H6.2019V18.5225H8.9719Z" fill="black"/>
</svg>
