<svg width="25" height="25" viewBox="0 0 25 25" fill="none" xmlns="http://www.w3.org/2000/svg">
<path d="M12.7506 22.3766C11.4006 21.5266 8.95064 20.8766 7.25064 20.8766C5.60064 20.8766 3.90064 21.1766 2.50064 21.9266C2.40064 21.9766 2.35064 21.9766 2.25064 21.9766C2.00064 21.9766 1.75064 21.7266 1.75064 21.4766V6.87662C2.35064 6.42662 3.00064 6.12662 3.75064 5.87662C4.86064 5.52662 6.08064 5.37662 7.25064 5.37662C9.20064 5.37662 11.3006 5.77662 12.7506 6.87662C14.2006 5.77662 16.3006 5.37662 18.2506 5.37662C19.4206 5.37662 20.6406 5.52662 21.7506 5.87662C22.5006 6.12662 23.1506 6.42662 23.7506 6.87662V21.4766C23.7506 21.7266 23.5006 21.9766 23.2506 21.9766C23.1506 21.9766 23.1006 21.9766 23.0006 21.9266C21.6006 21.1766 19.9006 20.8766 18.2506 20.8766C16.5506 20.8766 14.1006 21.5266 12.7506 22.3766ZM11.7506 8.37662C10.3906 7.77662 8.59064 7.37662 7.25064 7.37662C6.05064 7.37662 4.85064 7.52662 3.75064 7.87662V19.3766C4.85064 19.0266 6.05064 18.8766 7.25064 18.8766C8.59064 18.8766 10.3906 19.2766 11.7506 19.8766V8.37662ZM13.7506 19.8766C15.1106 19.2766 16.9106 18.8766 18.2506 18.8766C19.4506 18.8766 20.6506 19.0266 21.7506 19.3766V7.87662C20.6506 7.52662 19.4506 7.37662 18.2506 7.37662C16.9106 7.37662 15.1106 7.77662 13.7506 8.37662V19.8766ZM14.7506 17.2266C15.7106 16.8766 16.8706 16.7066 18.2506 16.7066C19.2906 16.7066 20.1306 16.7866 20.7506 16.9466V15.4466C19.8806 15.2866 19.0406 15.2066 18.2506 15.2066C16.9106 15.2066 15.7506 15.3766 14.7506 15.6366V17.2266ZM14.7506 14.5666C15.7106 14.2166 16.8706 14.0366 18.2506 14.0366C19.2906 14.0366 20.1306 14.1166 20.7506 14.2766V12.7766C19.8806 12.6166 19.0406 12.5466 18.2506 12.5466C16.9706 12.5466 15.8006 12.6966 14.7506 12.9966V14.5666ZM14.7506 11.8766C15.7106 11.5466 16.8706 11.3766 18.2506 11.3766C19.1606 11.3766 20.0106 11.4666 20.7506 11.6566V10.1066C19.8806 9.95662 19.0406 9.87662 18.2506 9.87662C16.9306 9.87662 15.7506 10.0266 14.7506 10.3366V11.8766Z" fill="black"/>
</svg>
